0
SECTION
2
HEADER
9
$INSUNITS
70
4
9
$ACADVER
1
AC1014
9
$HANDSEED
5
FFFF
0
ENDSEC
0
SECTION
2
TABLES
0
TABLE
2
VPORT
5
8
100
AcDbSymbolTable
0
ENDTAB
0
TABLE
2
LTYPE
5
5
100
AcDbSymbolTable
0
LTYPE
5
14
100
AcDbSymbolTableRecord
100
AcDbLinetypeTableRecord
2
BYBLOCK
70
0
0
LTYPE
5
15
100
AcDbSymbolTableRecord
100
AcDbLinetypeTableRecord
2
BYLAYER
70
0
0
LTYPE
5
16
100
AcDbSymbolTableRecord
100
AcDbLinetypeTableRecord
2
DASHED
70
0
3
Dashed __ __ __ __ __ __ __ __ __ __ __ __ __ _
72
65
73
2
40
0.75
49
0.5
74
0
49
-0.25
74
0
0
ENDTAB
0
TABLE
2
LAYER
5
2
100
AcDbSymbolTable
70
3
0
LAYER
5
50
100
AcDbSymbolTableRecord
100
AcDbLayerTableRecord
2
1
70
0
62
7
6
DASHED
0
LAYER
5
51
100
AcDbSymbolTableRecord
100
AcDbLayerTableRecord
2
0
70
0
62
7
6
CONTINUOUS
0
ENDTAB
0
TABLE
2
STYLE
5
3
100
AcDbSymbolTable
70
1
0
STYLE
5
11
100
AcDbSymbolTableRecord
100
AcDbTextStyleTableRecord
2
STANDARD
70
0
0
ENDTAB
0
TABLE
2
VIEW
5
6
100
AcDbSymbolTable
70
0
0
ENDTAB
0
TABLE
2
UCS
5
7
100
AcDbSymbolTable
70
0
0
ENDTAB
0
TABLE
2
APPID
5
9
100
AcDbSymbolTable
70
2
0
APPID
5
12
100
AcDbSymbolTableRecord
100
AcDbRegAppTableRecord
2
ACAD
70
0
0
ENDTAB
0
TABLE
2
DIMSTYLE
5
A
100
AcDbSymbolTable
70
1
0
ENDTAB
0
TABLE
2
BLOCK_RECORD
5
1
100
AcDbSymbolTable
70
1
0
BLOCK_RECORD
5
1F
100
AcDbSymbolTableRecord
100
AcDbBlockTableRecord
2
*MODEL_SPACE
0
BLOCK_RECORD
5
1B
100
AcDbSymbolTableRecord
100
AcDbBlockTableRecord
2
*PAPER_SPACE
0
ENDTAB
0
ENDSEC
0
SECTION
2
BLOCKS
0
BLOCK
5
20
100
AcDbEntity
100
AcDbBlockBegin
2
*MODEL_SPACE
0
ENDBLK
5
21
100
AcDbEntity
100
AcDbBlockEnd
0
BLOCK
5
1C
100
AcDbEntity
100
AcDbBlockBegin
2
*PAPER_SPACE
0
ENDBLK
5
1D
100
AcDbEntity
100
AcDbBlockEnd
0
ENDSEC
0
SECTION
2
ENTITIES
0
LWPOLYLINE
5
100
100
AcDbEntity
8
0
100
AcDbPolyline
90
28
70
1
43
0.0
10
-124.08472198361397
20
45.721054188524292
10
-124.08472198361383
20
26.67105418852481
10
-130.43472007626502
20
26.671054188524739
10
-130.4347200762648
20
1.2710541885253868
10
-124.08472198361355
20
1.2710541885254578
10
-124.08472198361335
20
-24.128945811473859
10
-130.43472007626451
20
-24.128945811473894
10
-130.43472007626431
20
-49.52894581147325
10
-124.08472198361306
20
-49.528945811473179
10
-124.08472198361298
20
-68.578945811472693
10
-75.824721983613983
20
-68.578945811472067
10
-75.824721983613941
20
-74.928945811471891
10
-27.56472198361493
20
-74.928945811471266
10
-27.564721983614966
20
-68.578945811471471
10
20.695278016384009
20
-68.578945811470845
10
20.695278016384044
20
-74.928945811470641
10
68.955278016383076
20
-74.928945811470015
10
68.955278016383005
20
-68.57894581147022
10
117.21527801638197
20
-68.578945811469595
10
117.21527801638183
20
-49.528945811470102
10
123.56527801638168
20
-49.528945811469995
10
123.56527801638144
20
-24.128945811470643
10
117.2152780163816
20
-24.12894581147075
10
117.21527801638135
20
1.2710541885285487
10
123.56527801638123
20
1.2710541885286197
10
123.56527801638097
20
26.671054188527972
10
117.21527801638112
20
26.671054188527901
10
117.21527801638096
20
45.721054188527418
0
CIRCLE
5
101
100
AcDbEntity
8
0
100
AcDbCircle
10
-105.03472007626567
20
29.211054188524965
30
0
40
6.4000000000000012
210
-1.2230006796157246e-30
220
-5.9164567891576893e-31
230
1
0
CIRCLE
5
102
100
AcDbEntity
8
0
100
AcDbCircle
10
-99.793783375578641
20
42.292056012426812
30
0
40
1.9049999999999647
210
-1.2230006796157307e-30
220
-1.9721522630526307e-31
230
1
0
CIRCLE
5
103
100
AcDbEntity
8
0
100
AcDbCircle
10
-88.92258337557891
20
42.292056012426954
30
0
40
1.9049999999999647
210
-1.2230006796157307e-30
220
-1.9721522630526307e-31
230
1
0
LWPOLYLINE
5
104
100
AcDbEntity
8
0
100
AcDbPolyline
90
4
70
1
43
0.0
10
-66.934720076266018
20
16.511054188525573
10
-66.93472007626616
20
34.291054188525095
10
-41.534720076266666
20
34.291054188525422
10
-41.534720076266524
20
16.511054188525858
0
CIRCLE
5
105
100
AcDbEntity
8
0
100
AcDbCircle
10
98.165278016381563
20
29.211054188527559
30
0
40
6.4000000000000012
210
-1.2230006796157246e-30
220
-5.9164567891576893e-31
230
1
0
CIRCLE
5
106
100
AcDbEntity
8
0
100
AcDbCircle
10
78.810961101871072
20
42.292056012429086
30
0
40
1.9049999999999647
210
-1.2230006796157307e-30
220
-1.9721522630526307e-31
230
1
0
CIRCLE
5
107
100
AcDbEntity
8
0
100
AcDbCircle
10
89.682161101870847
20
42.292056012429256
30
0
40
1.9049999999999647
210
-1.2230006796157307e-30
220
-1.9721522630526307e-31
230
1
0
CIRCLE
5
108
100
AcDbEntity
8
0
100
AcDbCircle
10
-105.03472007626488
20
-54.608945811472793
30
0
40
6.4000000000000012
210
-1.2230006796157151e-30
220
-1.3805065841367808e-30
230
1
0
CIRCLE
5
109
100
AcDbEntity
8
0
100
AcDbCircle
10
98.165278016382373
20
-54.6089458114702
30
0
40
6.4000000000000012
210
-1.2230006796157246e-30
220
-5.9164567891576893e-31
230
1
0
LWPOLYLINE
5
110
100
AcDbEntity
8
0
100
AcDbPolyline
90
4
70
1
43
0.0
10
111.51527801638287
20
-43.178945811470442
10
-68.484721983617135
20
-43.178945811472715
10
-68.484721983617277
20
-30.478945811473075
10
111.51527801638275
20
-30.47894581147078
0
CIRCLE
5
111
100
AcDbEntity
8
0
100
AcDbCircle
10
-40.484721983617355
20
-22.478945811469508
30
-2.2204460492503131e-15
40
1.2000000000000011
210
-5.6041620981466519e-33
220
7.4212761544496068e-31
230
1
0
LINE
5
112
100
AcDbEntity
8
1
100
AcDbLine
10
-30.984721983617352
20
-22.478945811469508
30
-2.2204460492503131e-15
11
-40.484721983617355
21
-22.478945811469508
31
-2.2204460492503131e-15
0
CIRCLE
5
113
100
AcDbEntity
8
0
100
AcDbCircle
10
-30.984721983617352
20
-22.478945811469508
30
-2.2204460492503131e-15
40
1.2000000000000011
210
-5.6041620981466519e-33
220
7.4212761544496068e-31
230
1
0
LINE
5
114
100
AcDbEntity
8
1
100
AcDbLine
10
111.51527801638275
20
-30.47894581147078
30
3.2786843177084559e-29
11
-40.484721983617256
21
-30.478945811469504
31
-8.4077907859489024e-44
0
LINE
5
115
100
AcDbEntity
8
1
100
AcDbLine
10
-40.484721983617256
20
-30.478945811469504
30
-8.4077907859489024e-44
11
-40.484721983617355
21
-22.478945811469508
31
-8.4077907859489024e-44
0
ENDSEC
0
SECTION
2
OBJECTS
0
DICTIONARY
5
C
100
AcDbDictionary
3
ACAD_GROUP
350
D
3
ACAD_MLINESTYLE
350
17
0
DICTIONARY
5
D
100
AcDbDictionary
0
DICTIONARY
5
1A
330
C
100
AcDbDictionary
0
DICTIONARY
5
17
100
AcDbDictionary
0
ENDSEC
0
EOF
