0
SECTION
2
HEADER
9
$INSUNITS
70
4
9
$ACADVER
1
AC1014
9
$HANDSEED
5
FFFF
0
ENDSEC
0
SECTION
2
TABLES
0
TABLE
2
VPORT
5
8
100
AcDbSymbolTable
0
ENDTAB
0
TABLE
2
LTYPE
5
5
100
AcDbSymbolTable
0
LTYPE
5
14
100
AcDbSymbolTableRecord
100
AcDbLinetypeTableRecord
2
BYBLOCK
70
0
0
LTYPE
5
15
100
AcDbSymbolTableRecord
100
AcDbLinetypeTableRecord
2
BYLAYER
70
0
0
LTYPE
5
16
100
AcDbSymbolTableRecord
100
AcDbLinetypeTableRecord
2
DASHED
70
0
3
Dashed __ __ __ __ __ __ __ __ __ __ __ __ __ _
72
65
73
2
40
0.75
49
0.5
74
0
49
-0.25
74
0
0
ENDTAB
0
TABLE
2
LAYER
5
2
100
AcDbSymbolTable
70
3
0
LAYER
5
50
100
AcDbSymbolTableRecord
100
AcDbLayerTableRecord
2
1
70
0
62
7
6
DASHED
0
LAYER
5
51
100
AcDbSymbolTableRecord
100
AcDbLayerTableRecord
2
0
70
0
62
7
6
CONTINUOUS
0
ENDTAB
0
TABLE
2
STYLE
5
3
100
AcDbSymbolTable
70
1
0
STYLE
5
11
100
AcDbSymbolTableRecord
100
AcDbTextStyleTableRecord
2
STANDARD
70
0
0
ENDTAB
0
TABLE
2
VIEW
5
6
100
AcDbSymbolTable
70
0
0
ENDTAB
0
TABLE
2
UCS
5
7
100
AcDbSymbolTable
70
0
0
ENDTAB
0
TABLE
2
APPID
5
9
100
AcDbSymbolTable
70
2
0
APPID
5
12
100
AcDbSymbolTableRecord
100
AcDbRegAppTableRecord
2
ACAD
70
0
0
ENDTAB
0
TABLE
2
DIMSTYLE
5
A
100
AcDbSymbolTable
70
1
0
ENDTAB
0
TABLE
2
BLOCK_RECORD
5
1
100
AcDbSymbolTable
70
1
0
BLOCK_RECORD
5
1F
100
AcDbSymbolTableRecord
100
AcDbBlockTableRecord
2
*MODEL_SPACE
0
BLOCK_RECORD
5
1B
100
AcDbSymbolTableRecord
100
AcDbBlockTableRecord
2
*PAPER_SPACE
0
ENDTAB
0
ENDSEC
0
SECTION
2
BLOCKS
0
BLOCK
5
20
100
AcDbEntity
100
AcDbBlockBegin
2
*MODEL_SPACE
0
ENDBLK
5
21
100
AcDbEntity
100
AcDbBlockEnd
0
BLOCK
5
1C
100
AcDbEntity
100
AcDbBlockBegin
2
*PAPER_SPACE
0
ENDBLK
5
1D
100
AcDbEntity
100
AcDbBlockEnd
0
ENDSEC
0
SECTION
2
ENTITIES
0
LWPOLYLINE
5
100
100
AcDbEntity
8
0
100
AcDbPolyline
90
36
70
1
43
0.0
10
72.390000000000015
20
66.03999904632569
10
24.130000000000003
20
66.03999904632569
10
24.130000000000003
20
59.690000000000012
10
-24.130000000000003
20
59.690000000000012
10
-24.130000000000003
20
66.039999046325676
10
-72.390000000000015
20
66.039999046325676
10
-72.390000000000015
20
59.690000000000012
10
-120.65000000000001
20
59.690000000000012
10
-120.65000000000001
20
38.100000000000009
10
-127.00000000000001
20
38.100000000000009
10
-127.00000000000001
20
12.700000000000005
10
-120.65000000000001
20
12.700000000000005
10
-120.65000000000001
20
-12.699999999999996
10
-127.00000000000001
20
-12.699999999999996
10
-127.00000000000001
20
-38.099999999999994
10
-120.65000000000001
20
-38.099999999999994
10
-120.65000000000001
20
-57.150000000000006
10
-72.390000000000015
20
-57.150000000000006
10
-72.390000000000015
20
-63.500000000000007
10
-24.130000000000003
20
-63.500000000000007
10
-24.130000000000003
20
-57.150000000000006
10
24.130000000000003
20
-57.150000000000006
10
24.130000000000003
20
-63.500000000000007
10
72.390000000000015
20
-63.500000000000007
10
72.390000000000015
20
-57.150000000000006
10
120.65000000000001
20
-57.150000000000006
10
120.65000000000001
20
-38.099999999999994
10
126.99999809265137
20
-38.099999999999994
10
126.99999809265137
20
-12.699999999999996
10
120.65000000000001
20
-12.699999999999996
10
120.65000000000001
20
12.700000000000005
10
126.99999809265137
20
12.700000000000005
10
126.99999809265137
20
38.100000000000009
10
120.65000000000001
20
38.100000000000009
10
120.65000000000001
20
59.690000000000012
10
72.390000000000015
20
59.690000000000012
0
LWPOLYLINE
5
101
100
AcDbEntity
8
0
100
AcDbPolyline
90
4
70
1
43
0.0
10
63.500002593994139
20
45.720001459121704
10
63.500002593994139
20
27.940000891685486
10
38.100001783370971
20
27.940000891685486
10
38.100001783370971
20
45.720001459121704
0
CIRCLE
5
102
100
AcDbEntity
8
0
100
AcDbCircle
10
101.59999809265138
20
-43.180000000000007
30
0
40
6.4000000000000012
210
0
220
0
230
1
0
LWPOLYLINE
5
103
100
AcDbEntity
8
0
100
AcDbPolyline
90
4
70
1
43
0.0
10
-114.95000000000002
20
-19.050000000000118
10
65.049999999999983
20
-19.050000000000118
10
65.049999999999983
20
-31.750000000000121
10
-114.95000000000002
20
-31.750000000000117
0
CIRCLE
5
104
100
AcDbEntity
8
0
100
AcDbCircle
10
-101.59999999999999
20
-43.180000000000007
30
0
40
6.4000000000000012
210
0
220
0
230
1
0
CIRCLE
5
105
100
AcDbEntity
8
0
100
AcDbCircle
10
-101.59999999999999
20
40.639999046325677
30
0
40
6.4000000000000012
210
0
220
0
230
1
0
CIRCLE
5
106
100
AcDbEntity
8
0
100
AcDbCircle
10
101.59999809265138
20
40.639999046325684
30
0
40
6.4000000000000012
210
0
220
0
230
1
0
LINE
5
107
100
AcDbEntity
8
1
100
AcDbLine
10
-114.95000000000002
20
-19.050000000000118
30
0
11
37.049999999999997
21
-19.050000000000118
31
0
0
LINE
5
108
100
AcDbEntity
8
1
100
AcDbLine
10
37.049999999999997
20
-19.050000000000118
30
0
11
37.049999999999997
21
-11.050000000000118
31
0
0
CIRCLE
5
109
100
AcDbEntity
8
0
100
AcDbCircle
10
37.049999999999997
20
-11.050000000000118
30
-2.2204460492503131e-15
40
1.2000000000000011
210
-5.6041620981466519e-33
220
7.4212761544496068e-31
230
1
0
CIRCLE
5
110
100
AcDbEntity
8
0
100
AcDbCircle
10
27.549999999999997
20
-11.050000000000118
30
-2.2204460492503131e-15
40
1.2000000000000011
210
-5.6041620981466519e-33
220
7.4212761544496068e-31
230
1
0
LINE
5
111
100
AcDbEntity
8
1
100
AcDbLine
10
37.049999999999997
20
-11.050000000000118
30
-2.2204460492503131e-15
11
27.549999999999997
21
-11.050000000000118
31
-2.2204460492503131e-15
0
ENDSEC
0
SECTION
2
OBJECTS
0
DICTIONARY
5
C
100
AcDbDictionary
3
ACAD_GROUP
350
D
3
ACAD_MLINESTYLE
350
17
0
DICTIONARY
5
D
100
AcDbDictionary
0
DICTIONARY
5
1A
330
C
100
AcDbDictionary
0
DICTIONARY
5
17
100
AcDbDictionary
0
ENDSEC
0
EOF
